# xmcd CD database file
#
# Track frame offsets:
#	150
#	17314
#	32489
#	62948
#	75770
#	87002
#	101947
#	123231
#
# Disc length: 2841 seconds
#
# Revision: 1
# Processed by: cddbd v1.4PL0 Copyright (c) Steve Scherf et al.
# Submitted via: CDex 1.51
#
DISCID=4f0b1708
DTITLE=Canned Heat - Living The Blues
DYEAR=1900
DGENRE=Blues
TTITLE0=Pony Blues
TTITLE1=My Mistake
TTITLE2=Sandy´s Blues
TTITLE3=Going Up The Country
TTITLE4=Walking By Myself
TTITLE5=Boogie Music
TTITLE6=One Kind Favor
TTITLE7=Parthenogenesis
EXTD=
EXTT0=
EXTT1=
EXTT2=
EXTT3=
EXTT4=
EXTT5=
EXTT6=
EXTT7=
PLAYORDER=
